<?xml version="1.0" encoding="utf-8"?>
<!-- Generator: Adobe Illustrator 22.0.1, SVG Export Plug-In . SVG Version: 6.00 Build 0)  -->
<svg version="1.1" id="Layer_1" xmlns="http://www.w3.org/2000/svg" xmlns:xlink="http://www.w3.org/1999/xlink" x="0px" y="0px"
	 viewBox="0 0 375 657" style="enable-background:new 0 0 375 657;" xml:space="preserve">
<style type="text/css">
	.st0{fill:url(#SVGID_1_);}
	.st1{fill:url(#SVGID_2_);}
	.st2{fill:url(#SVGID_3_);}
	.st3{opacity:0.543;fill:none;stroke:url(#SVGID_4_);stroke-width:4.528;enable-background:new    ;}
	.st4{fill:url(#SVGID_5_);}
</style>
<linearGradient id="SVGID_1_" gradientUnits="userSpaceOnUse" x1="-83.7701" y1="240.4967" x2="232.5639" y2="-5.1992">
	<stop  offset="0" style="stop-color:#FFFFFF;stop-opacity:0"/>
	<stop  offset="1" style="stop-color:#C9F0FF"/>
</linearGradient>
<path class="st0" d="M157.1,142.7c-35,6.6-50.5,40.1-30.2,41.7c20.3,1.5,28.8,48.1,15.2,57.9c-45.2,32.8-45.2,33.5-111.3,14.1
	c-13.7-4-26-4.8-36.8-2.4V2.8c95.6-14.1,141.5-11.3,137.7,8.3c-2.7,14.1-38.3,51-10.6,65C147.7,89.7,192.1,136.2,157.1,142.7z"/>
<linearGradient id="SVGID_2_" gradientUnits="userSpaceOnUse" x1="-309.076" y1="828.6679" x2="-310.2754" y2="827.822" gradientTransform="matrix(214 0 0 -537.1543 66617 445127.75)">
	<stop  offset="0" style="stop-color:#FFFFFF;stop-opacity:0"/>
	<stop  offset="1" style="stop-color:#C9F0FF"/>
</linearGradient>
<path class="st1" d="M430,535c-26.2-0.6-45.5-12.6-57.9-35.9c-18.6-35-18.5-110.8-58.3-106.7s-82.2-12.8-67.2-60.5
	c15.1-47.7,50.3-41.8,58.7-119.6c8.4-77.8-60.5,16.1-71.9-35.6c-4.4-20.2,6.1-22.9-10.3-45.6c-5.4-7.5-8.1-18.5-7-22.7
	c3.4-71.6,5.7-107.7,7-108.3c6.1-3,14.4-2,27.6-2c28.3,0,88,0.7,179.2,2V535z"/>
<linearGradient id="SVGID_3_" gradientUnits="userSpaceOnUse" x1="-289.1955" y1="834.0287" x2="-290.0658" y2="834.8198" gradientTransform="matrix(11.3137 11.3137 11.3137 -11.3137 -6118.187 13372.6279)">
	<stop  offset="0" style="stop-color:#FFFFFF;stop-opacity:0"/>
	<stop  offset="1" style="stop-color:#C9F0FF"/>
</linearGradient>
<path class="st2" d="M45.9,635.6l9.5,9.5c0.5,0.5,0.5,1.3,0,1.8l-9.5,9.5c-0.5,0.5-1.3,0.5-1.8,0l-9.5-9.5c-0.5-0.5-0.5-1.3,0-1.8
	l9.5-9.5C44.6,635.1,45.4,635.1,45.9,635.6z"/>
<linearGradient id="SVGID_4_" gradientUnits="userSpaceOnUse" x1="-296.1026" y1="827.9215" x2="-294.4732" y2="828.9037" gradientTransform="matrix(18.3624 10.6015 10.601 -18.3615 -3320.7705 18808.1055)">
	<stop  offset="0" style="stop-color:#FFFFFF;stop-opacity:0"/>
	<stop  offset="1" style="stop-color:#C9F0FF"/>
</linearGradient>
<path class="st3" d="M62.7,457.1l-1.1,18.6c-0.1,1.2-1.1,2.2-2.4,2.1c-0.4,0-0.7-0.1-1-0.3l-14.4-8.3c-1.1-0.6-1.5-2-0.8-3.1
	c0.2-0.3,0.4-0.6,0.7-0.8l15.6-10.3c1-0.7,2.4-0.4,3.1,0.6C62.6,456.2,62.8,456.6,62.7,457.1z"/>
<linearGradient id="SVGID_5_" gradientUnits="userSpaceOnUse" x1="-287.2741" y1="838.6691" x2="-284.5956" y2="835.7176" gradientTransform="matrix(9.1924 9.1924 9.1924 -9.1924 -4839.2734 10754.3428)">
	<stop  offset="0" style="stop-color:#FFFFFF;stop-opacity:0"/>
	<stop  offset="1" style="stop-color:#DEF5FE"/>
</linearGradient>
<path class="st4" d="M227.9,440.5l7.8,7.8c0.4,0.4,0.4,1,0,1.4l-7.8,7.8c-0.4,0.4-1,0.4-1.4,0l-7.8-7.8c-0.4-0.4-0.4-1,0-1.4
	l7.8-7.8C226.9,440.1,227.5,440.1,227.9,440.5z"/>
</svg>
